<svg xmlns="http://www.w3.org/2000/svg" width="54" height="55" viewBox="0 0 54 55"><g fill="#F06985"><path d="M27 18C26.2 18 25.5 18.7 25.5 19.5L25.5 42.6C25.5 43.4 26.2 44.1 27 44.1 27.8 44.1 28.5 43.4 28.5 42.6L28.5 19.5C28.5 18.7 27.8 18 27 18zM18 18C17.2 18.1 16.6 18.8 16.6 19.6L18.4 42.7C18.5 43.5 19.1 44.1 19.9 44.1 19.9 44.1 20 44.1 20 44.1 20.8 44 21.4 43.3 21.4 42.5L19.6 19.4C19.5 18.6 18.8 17.9 18 18z"/><path d="M51.9,7.3 L38.3,7.3 L38.3,3.5 C38.3,1.7 36.8,0.2 35,0.2 L19,0.2 C17.2,0.2 15.7,1.7 15.7,3.5 L15.7,7.3 L2.1,7.3 C1.3,7.3 0.6,8 0.6,8.8 C0.6,9.6 1.3,10.3 2.1,10.3 L6.1,10.3 L10.7,46.8 C11.1,51.2 14.8,54.7 19.3,54.7 L34.7,54.7 C39.1,54.7 42.9,51.2 43.3,46.9 L47.9,10.3 L51.9,10.3 C52.7,10.3 53.4,9.6 53.4,8.8 C53.4,8 52.7,7.3 51.9,7.3 Z M18.7,3.5 C18.7,3.3 18.8,3.2 19,3.2 L35,3.2 C35.2,3.2 35.3,3.3 35.3,3.5 L35.3,7.3 L18.7,7.3 L18.7,3.5 Z M40.3,46.6 C40.1,49.5 37.6,51.7 34.7,51.7 L19.3,51.7 C16.4,51.7 13.9,49.4 13.7,46.5 L9.1,10.3 L44.8,10.3 L40.3,46.6 Z"/><path d="M34.4,19.4 L32.6,42.5 C32.5,43.3 33.2,44 34,44.1 C34,44.1 34.1,44.1 34.1,44.1 C34.9,44.1 35.5,43.5 35.6,42.7 L37.4,19.6 C37.5,18.8 36.8,18.1 36,18 C35.2,17.9 34.5,18.6 34.4,19.4 Z"/></g></svg>